<svg height="512" viewBox="0 0 32 32" width="512" xmlns="http://www.w3.org/2000/svg"><g id="_x31_0"><path d="m29 15c-.5527344 0-1 .4477539-1 1 0 6.6166992-5.3828125 12-12 12-2.3607788 0-4.6644287-.7078857-6.6181641-2h.6181641c.5527344 0 1-.4477539 1-1s-.4472656-1-1-1h-3c-.5527344 0-1 .4477539-1 1v3c0 .5522461.4472656 1 1 1s1-.4477539 1-1v-.5116577c2.3365479 1.6258545 5.1351318 2.5116577 8 2.5116577 7.7197266 0 14-6.2802734 14-14 0-.5522461-.4472656-1-1-1z"/><path d="m16 4c2.3934326 0 4.666748.6903687 6.6317139 2h-.6317139c-.5527344 0-1 .4477539-1 1s.4472656 1 1 1h3c.5527344 0 1-.4477539 1-1v-3c0-.5522461-.4472656-1-1-1s-1 .4477539-1 1v.522644c-2.352356-1.6463012-5.0992432-2.522644-8-2.522644-7.7197266 0-14 6.2802734-14 14 0 .5522461.4472656 1 1 1s1-.4477539 1-1c0-6.6166992 5.3828125-12 12-12z"/><path d="m24 20.0002441v-8c0-.0026855-.0011597-.0050659-.0011597-.0077515l-7.4988403 3.3328248v8.6749268l6.8935547-3.0810547c.3681641-.1572266.6064453-.519043.6064453-.9189454z"/><path d="m23.4743652 11.1309814c-.0280151-.0153198-7.0808105-3.0496826-7.0808105-3.0496826-.25-.1083984-.5371094-.1083984-.7871094 0 0 0-7.0527954 3.0343628-7.0808105 3.0496826l7.4743652 3.3218995z"/><path d="m8 12.0002441v8c0 .3999023.2382813.7617188.6064453.9189453l6.8935547 3.0810547v-8.6749268l-7.4988403-3.3328247c0 .0026856-.0011597.005066-.0011597.0077515z"/></g></svg>