<svg xmlns="http://www.w3.org/2000/svg" width="13.071" height="13.56" viewBox="0 0 13.071 13.56">
  <g id="layer1" transform="translate(-0.36 -290.907)">
    <path id="circle2859" d="M6.58,290.907a3.894,3.894,0,0,0-2.24,7.079,6.33,6.33,0,0,0-3.98,5.866.614.614,0,1,0,1.229,0,5.089,5.089,0,0,1,7.768-4.33A.616.616,0,0,0,10,298.475a6.3,6.3,0,0,0-1.123-.533,3.891,3.891,0,0,0-2.3-7.035Zm0,1.23a2.668,2.668,0,1,1-2.666,2.67A2.664,2.664,0,0,1,6.58,292.137Zm6.217,7.372a.614.614,0,0,0-.5.282l-2.117,3.173-1.328-.889a.617.617,0,0,0-.685,1.026l1.846,1.228a.614.614,0,0,0,.852-.173l2.458-3.687a.614.614,0,0,0-.527-.961Z"/>
  </g>
</svg>
