<svg xmlns="http://www.w3.org/2000/svg" width="19.884" height="15.623" viewBox="0 0 19.884 15.623">
  <g id="Add_Movement" data-name="Add Movement" transform="translate(0 -51.198)">
    <g id="Group_3765" data-name="Group 3765" transform="translate(0 51.198)">
      <path id="Path_4517" data-name="Path 4517" d="M19.676,56.377,14.7,51.406a.71.71,0,0,0-1.212.5v2.13H8.521a.71.71,0,0,0,0,1.42H14.2a.71.71,0,0,0,.71-.71V53.623l3.257,3.257-3.257,3.257V59.01a.71.71,0,0,0-.71-.71H6.391v-2.13a.71.71,0,0,0-1.212-.5L.208,60.638a.71.71,0,0,0,0,1l4.971,4.971a.71.71,0,0,0,.5.208.7.7,0,0,0,.272-.054.71.71,0,0,0,.438-.656v-2.13h4.971a.71.71,0,1,0,0-1.42H5.681a.71.71,0,0,0-.71.71V64.4L1.714,61.14l3.257-3.257V59.01a.71.71,0,0,0,.71.71h7.812v2.13a.71.71,0,0,0,1.212.5l4.971-4.971A.71.71,0,0,0,19.676,56.377Z" transform="translate(0 -51.198)" fill="#fff"/>
    </g>
  </g>
</svg>
