<svg xmlns="http://www.w3.org/2000/svg" width="21.067" height="21.067" viewBox="0 0 21.067 21.067">
  <path id="Attendance" d="M21.067,4.938v5.843a.823.823,0,1,1-1.646,0V4.938a1.648,1.648,0,0,0-1.646-1.646h-1.07v.823a.823.823,0,1,1-1.646,0V3.292H11.315v.823a.823.823,0,0,1-1.646,0V3.292h-3.7v.823a.823.823,0,1,1-1.646,0V3.292H3.292A1.648,1.648,0,0,0,1.646,4.938V17.776a1.648,1.648,0,0,0,1.646,1.646H10.2a.823.823,0,0,1,0,1.646H3.292A3.3,3.3,0,0,1,0,17.776V4.938A3.3,3.3,0,0,1,3.292,1.646H4.32V.823a.823.823,0,0,1,1.646,0v.823h3.7V.823a.823.823,0,1,1,1.646,0v.823H15.06V.823a.823.823,0,1,1,1.646,0v.823h1.07A3.3,3.3,0,0,1,21.067,4.938Zm-15.1,3.7a.823.823,0,1,0-.823.823A.823.823,0,0,0,5.966,8.641Zm6.337.823a.823.823,0,1,0-.823-.823A.823.823,0,0,0,12.3,9.464Zm3.58,0a.823.823,0,1,0-.823-.823A.823.823,0,0,0,15.883,9.464ZM5.966,12.221a.823.823,0,1,0-.823.823A.823.823,0,0,0,5.966,12.221Zm-.823,2.757a.823.823,0,1,0,.823.823A.823.823,0,0,0,5.143,14.978Zm4.4-6.337a.823.823,0,1,0-.823.823A.823.823,0,0,0,9.546,8.641Zm0,3.58a.823.823,0,1,0-.823.823A.823.823,0,0,0,9.546,12.221Zm-.823,2.757a.823.823,0,1,0,.823.823A.823.823,0,0,0,8.723,14.978Zm2.757-2.757A.823.823,0,1,0,12.3,11.4.823.823,0,0,0,11.48,12.221Zm3.58,0a.823.823,0,1,0,.823-.823A.823.823,0,0,0,15.06,12.221ZM20.723,13.4a.823.823,0,0,0-1.148.19l-4.056,5.666a.47.47,0,0,1-.676.035l-2.622-2.558a.823.823,0,1,0-1.15,1.178L13.7,20.477l.007.007a2.123,2.123,0,0,0,1.46.583c.046,0,.093,0,.14,0a2.121,2.121,0,0,0,1.509-.786l.028-.036,4.073-5.689a.823.823,0,0,0-.19-1.148Zm0,0" fill="#463b3b"/>
</svg>
