<svg id="wall-clock" xmlns="http://www.w3.org/2000/svg" width="16.48" height="16.48" viewBox="0 0 16.48 16.48">
  <g id="Group_3835" data-name="Group 3835">
    <g id="Group_3834" data-name="Group 3834">
      <path id="Path_4537" data-name="Path 4537" d="M415.307,376.854a.644.644,0,0,0-.9.132c-.117.157-.242.311-.371.457a.644.644,0,1,0,.965.853c.154-.174.3-.356.44-.542A.644.644,0,0,0,415.307,376.854Z" transform="translate(-400.551 -364.601)" fill="#ff8aa5"/>
      <path id="Path_4538" data-name="Path 4538" d="M463.46,286.439a.644.644,0,0,0-.766.492c-.042.191-.092.383-.15.569a.644.644,0,1,0,1.23.38c.068-.221.128-.449.177-.675A.644.644,0,0,0,463.46,286.439Z" transform="translate(-447.628 -277.205)" fill="#ff8aa5"/>
      <path id="Path_4539" data-name="Path 4539" d="M334.931,442.275c-.171.1-.348.185-.526.265a.644.644,0,1,0,.53,1.173c.211-.1.421-.2.624-.314a.644.644,0,0,0-.628-1.124Z" transform="translate(-323.274 -427.96)" fill="#ff8aa5"/>
      <path id="Path_4540" data-name="Path 4540" d="M159.353,76.644v4.883l-2.361,2.361a.644.644,0,0,0,.91.91l2.549-2.549a.644.644,0,0,0,.189-.455v-5.15a.644.644,0,1,0-1.288,0Z" transform="translate(-151.756 -73.554)" fill="#ff8aa5"/>
      <path id="Path_4541" data-name="Path 4541" d="M15.837,1.384a.644.644,0,0,0-.644.644V3.815A8.241,8.241,0,1,0,8.24,16.48h.032c.232,0,.466-.01.7-.029a.644.644,0,1,0-.107-1.283c-.195.016-.393.025-.589.025H8.24A6.953,6.953,0,1,1,14.225,4.7h-1.77a.644.644,0,1,0,0,1.288H14.42a2.048,2.048,0,0,0,1.071-.3.643.643,0,0,0,.058-.037,2.06,2.06,0,0,0,.931-1.722v-1.9A.644.644,0,0,0,15.837,1.384Z" fill="#ff8aa5"/>
    </g>
  </g>
</svg>
