<svg xmlns="http://www.w3.org/2000/svg" width="22.194" height="22.193" viewBox="0 0 22.194 22.193">
  <path id="damaged-package" d="M21.446,3.521,11.461.064a1.087,1.087,0,0,0-.726,0L.748,3.522A1.113,1.113,0,0,0,0,4.573V8.028a.928.928,0,0,0,.317.7l.728.633A.185.185,0,0,1,1.11,9.5v.666a1.534,1.534,0,0,0,.079.486l.237.712-.47.472H.74a.74.74,0,0,0-.74.74v5.045a1.113,1.113,0,0,0,.748,1.052l9.985,3.457a1.089,1.089,0,0,0,.726,0l9.987-3.459a1.113,1.113,0,0,0,.748-1.051V10.206a.719.719,0,0,0-.4-.647l-.338-.169a.69.69,0,0,0-.8.129l-.432.431a.351.351,0,0,1-.163.089l-1.685.374,1.278-1.092a1.079,1.079,0,0,0,.353-.634l.108-.635a.082.082,0,0,1,.055-.064L21.7,7.464a.737.737,0,0,0,.5-.7V4.573a1.113,1.113,0,0,0-.748-1.052ZM11.1,7.377,8.532,6.493,18.17,3.169l2.559.888ZM4.069,5.736,7.028,6.757v4.25a.091.091,0,0,1-.16.058l-.8-.955A.833.833,0,0,0,5.047,9.9l-.847.431a.088.088,0,0,1-.088,0,.087.087,0,0,1-.043-.077Zm.763-.518,9.645-3.327,2.56.888L7.4,6.1ZM10.981.761a.345.345,0,0,1,.236,0l2.128.738L3.7,4.825l-2.233-.77ZM.74,17.623V12.577H.957a.745.745,0,0,0,.523-.217l.47-.47a.735.735,0,0,0,.178-.756l-.238-.714a.8.8,0,0,1-.041-.253V9.5a.928.928,0,0,0-.317-.7L.8,8.168a.187.187,0,0,1-.064-.14V4.588l2.589.893v4.77a.83.83,0,0,0,1.208.74l.846-.431a.1.1,0,0,1,.121.024l.8.955a.822.822,0,0,0,.634.3.836.836,0,0,0,.287-.051.821.821,0,0,0,.548-.78V7.012l2.959,1.021V21.347l-2.219-.769V17.386a.37.37,0,1,0-.74,0v2.936l-1.11-.384V18.866a.37.37,0,1,0-.74,0v.816L.99,17.975A.372.372,0,0,1,.74,17.623ZM19.931,7.288a.823.823,0,0,0-.543.641l-.108.638a.333.333,0,0,1-.108.195l-1.62,1.387a.626.626,0,0,0,.543,1.087l2.133-.471a1.093,1.093,0,0,0,.523-.288l.407-.407.3.138v7.414a.372.372,0,0,1-.25.353l-9.736,3.372V17.035l2.336-.777a.37.37,0,0,0-.233-.7l-2.1.7V15.186l1.6-.53a.37.37,0,0,0-.233-.7l-1.363.453V8.032l9.987-3.445V6.764Z" transform="translate(0 -0.001)" fill="#382f2f"/>
</svg>
