<svg xmlns="http://www.w3.org/2000/svg" width="27.333" height="27.333" viewBox="0 0 27.333 27.333">
  <g id="Dashboard" transform="translate(-2 -2)">
    <g id="Group_3585" data-name="Group 3585" transform="translate(16.643 14.69)">
      <path id="Path_4383" data-name="Path 4383" d="M27.28,29.643H19.41A2.413,2.413,0,0,1,17,27.232V17.41A2.413,2.413,0,0,1,19.41,15h7.87a2.413,2.413,0,0,1,2.41,2.41v9.822A2.413,2.413,0,0,1,27.28,29.643Zm-7.87-12.69a.458.458,0,0,0-.458.458v9.822a.458.458,0,0,0,.458.458h7.87a.458.458,0,0,0,.458-.458V17.41a.458.458,0,0,0-.458-.458Z" transform="translate(-17 -15)" fill="#463b3b"/>
    </g>
    <g id="Group_3586" data-name="Group 3586" transform="translate(16.643 2)">
      <path id="Path_4384" data-name="Path 4384" d="M27.28,12.738H19.41A2.413,2.413,0,0,1,17,10.328V4.41A2.413,2.413,0,0,1,19.41,2h7.87a2.413,2.413,0,0,1,2.41,2.41v5.918A2.413,2.413,0,0,1,27.28,12.738ZM19.41,3.952a.458.458,0,0,0-.458.458v5.918a.458.458,0,0,0,.458.458h7.87a.458.458,0,0,0,.458-.458V4.41a.458.458,0,0,0-.458-.458Z" transform="translate(-17 -2)" fill="#463b3b"/>
    </g>
    <g id="Group_3587" data-name="Group 3587" transform="translate(2 2)">
      <path id="Path_4385" data-name="Path 4385" d="M12.28,16.643H4.41A2.413,2.413,0,0,1,2,14.232V4.41A2.413,2.413,0,0,1,4.41,2h7.87a2.413,2.413,0,0,1,2.41,2.41v9.822A2.413,2.413,0,0,1,12.28,16.643ZM4.41,3.952a.458.458,0,0,0-.458.458v9.822a.458.458,0,0,0,.458.458h7.87a.458.458,0,0,0,.458-.458V4.41a.458.458,0,0,0-.458-.458Z" transform="translate(-2 -2)" fill="#463b3b"/>
    </g>
    <g id="Group_3588" data-name="Group 3588" transform="translate(2 18.595)">
      <path id="Path_4386" data-name="Path 4386" d="M12.28,29.738H4.41A2.413,2.413,0,0,1,2,27.328V21.41A2.413,2.413,0,0,1,4.41,19h7.87a2.413,2.413,0,0,1,2.41,2.41v5.918A2.413,2.413,0,0,1,12.28,29.738ZM4.41,20.952a.458.458,0,0,0-.458.458v5.918a.458.458,0,0,0,.458.458h7.87a.458.458,0,0,0,.458-.458V21.41a.458.458,0,0,0-.458-.458Z" transform="translate(-2 -19)" fill="#463b3b"/>
    </g>
  </g>
</svg>
