<svg xmlns="http://www.w3.org/2000/svg" width="11.013" height="13.56" viewBox="0 0 11.013 13.56">
  <g id="delete" transform="translate(0.003 0.002)">
    <path id="Path_26" data-name="Path 26" d="M222.716,154.7a.318.318,0,0,0-.318.318v6a.318.318,0,1,0,.635,0v-6A.318.318,0,0,0,222.716,154.7Zm0,0" transform="translate(-215.339 -149.792)"/>
    <path id="Path_27" data-name="Path 27" d="M104.716,154.7a.318.318,0,0,0-.318.318v6a.318.318,0,1,0,.635,0v-6A.318.318,0,0,0,104.716,154.7Zm0,0" transform="translate(-101.086 -149.792)"/>
    <path id="Path_28" data-name="Path 28" d="M.9,4.035V11.86a1.752,1.752,0,0,0,.466,1.208,1.564,1.564,0,0,0,1.135.491H8.508a1.563,1.563,0,0,0,1.135-.491,1.752,1.752,0,0,0,.466-1.208V4.035A1.213,1.213,0,0,0,9.8,1.65H8.171v-.4A1.247,1.247,0,0,0,6.913,0H4.093A1.247,1.247,0,0,0,2.836,1.253v.4H1.21A1.213,1.213,0,0,0,.9,4.035Zm7.609,8.888H2.5a1.006,1.006,0,0,1-.965-1.064v-7.8H9.473v7.8a1.006,1.006,0,0,1-.965,1.064ZM3.471,1.253A.612.612,0,0,1,4.093.634h2.82a.612.612,0,0,1,.622.619v.4H3.471ZM1.21,2.285H9.8a.572.572,0,0,1,0,1.143H1.21a.572.572,0,1,1,0-1.143Zm0,0" transform="translate(0 0)"/>
    <path id="Path_29" data-name="Path 29" d="M163.716,154.7a.318.318,0,0,0-.318.318v6a.318.318,0,1,0,.635,0v-6A.318.318,0,0,0,163.716,154.7Zm0,0" transform="translate(-158.212 -149.792)"/>
  </g>
</svg>
