<svg xmlns="http://www.w3.org/2000/svg" width="26.19" height="27.333" viewBox="0 0 26.19 27.333">
  <g id="Inventory" transform="translate(-40 -32)">
    <path id="Path_4522" data-name="Path 4522" d="M88,240h1.952v1.952H88Z" transform="translate(-45.071 -195.31)" fill="#463b3b"/>
    <path id="Path_4523" data-name="Path 4523" d="M237.7,34.929h.153v-.976h-1.464a.488.488,0,0,1-.473-.606L236.256,32H233.6l.336,1.346a.488.488,0,0,1-.473.606H232v.976Z" transform="translate(-180.286)" fill="#463b3b"/>
    <path id="Path_4524" data-name="Path 4524" d="M45.857,370.44a.488.488,0,0,1-.488.488H42.44a.488.488,0,0,1-.488-.488V368H40v6.833h7.809V368H45.857Zm.976,3.417h-.976v-.976h.976Z" transform="translate(0 -315.5)" fill="#463b3b"/>
    <path id="Path_4525" data-name="Path 4525" d="M232,368h1.952v1.952H232Z" transform="translate(-180.286 -315.5)" fill="#463b3b"/>
    <path id="Path_4526" data-name="Path 4526" d="M346.929,65.464v9.413l.976-.292V64.976a.977.977,0,0,0-.976-.976H344v.976h2.44A.488.488,0,0,1,346.929,65.464Z" transform="translate(-285.453 -30.048)" fill="#463b3b"/>
    <path id="Path_4527" data-name="Path 4527" d="M155.9,64h-2.929a.977.977,0,0,0-.976.976v8.786h.976v-8.3a.488.488,0,0,1,.488-.488h2.44Z" transform="translate(-105.167 -30.048)" fill="#463b3b"/>
    <path id="Path_4528" data-name="Path 4528" d="M45.857,242.44a.488.488,0,0,1-.488.488H42.44a.488.488,0,0,1-.488-.488V240H40v6.833h7.809V240H45.857Zm.976,3.417h-.976v-.976h.976Z" transform="translate(0 -195.31)" fill="#463b3b"/>
    <path id="Path_4529" data-name="Path 4529" d="M189.857,370.44a.488.488,0,0,1-.488.488H186.44a.488.488,0,0,1-.488-.488V368H184v6.833h7.809V368h-1.952Zm.976,3.417h-.976v-.976h.976Z" transform="translate(-135.214 -315.5)" fill="#463b3b"/>
    <path id="Path_4530" data-name="Path 4530" d="M216,128h.976v.976H216Z" transform="translate(-165.262 -90.143)" fill="#463b3b"/>
    <path id="Path_4531" data-name="Path 4531" d="M331.9,294.463a.488.488,0,0,1-.488.488H328v.976h3.9a.977.977,0,0,0,.976-.976v-7.345l-.976.292Z" transform="translate(-270.429 -240.011)" fill="#463b3b"/>
    <path id="Path_4532" data-name="Path 4532" d="M233.138,293.112l1.075.188,2.228-.667-.28-.935-2.228.667Z" transform="translate(-181.354 -243.854)" fill="#463b3b"/>
    <path id="Path_4533" data-name="Path 4533" d="M308.441,238.966a.488.488,0,0,0-.608-.328l-9.82,2.938.28.935,9.82-2.938A.488.488,0,0,0,308.441,238.966Z" transform="translate(-242.272 -194.011)" fill="#463b3b"/>
    <path id="Path_4534" data-name="Path 4534" d="M192.786,114.059h2.929v-5.785l-7.472,2.235a.489.489,0,0,1-.224.013l-2.15-.376a.488.488,0,0,1-.25-.837l1.591-1.495a.489.489,0,0,1,.194-.112l8.311-2.487V96H184v15.619h8.3a.488.488,0,0,1,.488.488Zm1.952-11.714h-3.9v-.976h3.9Zm-3.9-5.369h3.9v.976h-3.9Zm-1.952,0h.976v.976h-.976Zm0,1.952h5.857V99.9h-5.857Zm0,2.44h.976v.976h-.976Zm0,1.952h5.857v.976h-5.857Zm-3.9-5.857a.488.488,0,0,1,.488-.488h1.952a.488.488,0,0,1,.488.488v1.952a.488.488,0,0,1-.488.488h-1.952a.488.488,0,0,1-.488-.488Zm0,6.345v-1.952a.488.488,0,0,1,.488-.488h1.952a.488.488,0,0,1,.488.488v1.952a.488.488,0,0,1-.488.488h-1.952A.488.488,0,0,1,184.976,103.809Z" transform="translate(-135.214 -60.095)" fill="#463b3b"/>
    <path id="Path_4535" data-name="Path 4535" d="M216,200h.976v.976H216Z" transform="translate(-165.262 -157.75)" fill="#463b3b"/>
    <path id="Path_4536" data-name="Path 4536" d="M88,368h1.952v1.952H88Z" transform="translate(-45.071 -315.5)" fill="#463b3b"/>
  </g>
</svg>
