<svg xmlns="http://www.w3.org/2000/svg" width="35.897" height="27.333" viewBox="0 0 35.897 27.333">
  <g id="kiosk" transform="translate(-1.208 -7.429)">
    <path id="Path_4486" data-name="Path 4486" d="M54.295,48H47.58l.793-8.84H55Z" transform="translate(-19.342 -13.233)" fill="#463b3b"/>
    <path id="Path_4487" data-name="Path 4487" d="M1.208,15.5H34.285v1.166H1.208Z" transform="translate(0 -3.368)" fill="#463b3b"/>
    <circle id="Ellipse_11" data-name="Ellipse 11" cx="2.134" cy="2.134" r="2.134" transform="translate(20.783 16.087)" fill="#463b3b"/>
    <path id="Path_4488" data-name="Path 4488" d="M23.525,10.969,19.7,7.429H17.058l3.724,3.54Z" transform="translate(-6.611)" fill="#463b3b"/>
    <path id="Path_4489" data-name="Path 4489" d="M37.966,10.969V7.429H24.53l3.829,3.54Z" transform="translate(-9.728)" fill="#463b3b"/>
    <path id="Path_4490" data-name="Path 4490" d="M16.806,10.969l-3.723-3.54h-1.5v3.54Z" transform="translate(-4.327)" fill="#463b3b"/>
    <path id="Path_4491" data-name="Path 4491" d="M50.331,19.5H51.5V27.95H50.331Z" transform="translate(-20.49 -5.036)" fill="#463b3b"/>
    <path id="Path_4492" data-name="Path 4492" d="M14.087,27.949V19.5H6.833v8.449ZM8.912,20.415h3.037V21.58H8.912Zm0,2.4h3.037v1.166H8.912Zm0,2.555h3.037v1.166H8.912Z" transform="translate(-2.346 -5.035)" fill="#463b3b"/>
    <path id="Path_4493" data-name="Path 4493" d="M13.5,47.456A3.556,3.556,0,0,0,9.947,43.9H6.833v6.074H13.5Z" transform="translate(-2.346 -15.212)" fill="#463b3b"/>
    <path id="Path_4494" data-name="Path 4494" d="M39.684,32.165v-.284a2.273,2.273,0,0,0-2.276-2.273H33.48a2.273,2.273,0,0,0-2.273,2.273v.284Z" transform="translate(-12.513 -9.251)" fill="#463b3b"/>
    <path id="Path_4495" data-name="Path 4495" d="M30.312,36.671h3.042v-.676H6.833v3.439H9.949a4.721,4.721,0,0,1,4.439,3.131H29.783Z" transform="translate(-2.346 -11.915)" fill="#463b3b"/>
    <path id="Path_4496" data-name="Path 4496" d="M35.006,52.213l.265-2.945H20.24c.012.14.021.281.021.424v2.522Z" transform="translate(-7.938 -17.451)" fill="#463b3b"/>
    <path id="Path_4497" data-name="Path 4497" d="M61.431,47.4l-.324,4.034h.982Z" transform="translate(-24.984 -16.672)" fill="#463b3b"/>
  </g>
</svg>
