<svg height="512" viewBox="0 0 64 64" width="512" xmlns="http://www.w3.org/2000/svg"><g id="_17-Percentage" data-name="17-Percentage"><path d="m36 64h-8a1 1 0 0 1 -1-1v-27a2 2 0 0 1 2-2h6a2 2 0 0 1 2 2v27a1 1 0 0 1 -1 1zm-7-2h6v-26h-6z"/><path d="m23 64h-8a1 1 0 0 1 -1-1v-15a2 2 0 0 1 2-2h6a2 2 0 0 1 2 2v15a1 1 0 0 1 -1 1zm-7-2h6v-14h-6z"/><path d="m10 64h-8a1 1 0 0 1 -1-1v-7a2 2 0 0 1 2-2h6a2 2 0 0 1 2 2v7a1 1 0 0 1 -1 1zm-7-2h6v-6h-6z"/><path d="m49 64h-8a1 1 0 0 1 -1-1v-41a2 2 0 0 1 2-2h6a2 2 0 0 1 2 2v41a1 1 0 0 1 -1 1zm-7-2h6v-40h-6z"/><path d="m62 64h-8a1 1 0 0 1 -1-1v-53a2 2 0 0 1 2-2h6a2 2 0 0 1 2 2v4h-2v-4h-6v52h6v-42h2v43a1 1 0 0 1 -1 1z"/><path d="m61 16h2v2.001h-2z"/><path d="m29.876 14.131a14.052 14.052 0 0 0 -.38-1.868l1.928-.532a15.927 15.927 0 0 1 .434 2.137z"/><path d="m16 32a16 16 0 0 1 -11.431-27.195 16 16 0 0 1 26.098 4.795l-1.832.8a13.982 13.982 0 0 0 -12.835-8.4h-.148a14 14 0 1 0 14.148 14h2a16.051 16.051 0 0 1 -15.834 16z"/><path d="m15 6h2v3h-2z"/><path d="m17.5 24h-5.5v-2h5.5a2.5 2.5 0 0 0 0-5h-3a4.5 4.5 0 0 1 0-9h5.5v2h-5.5a2.5 2.5 0 0 0 0 5h3a4.5 4.5 0 0 1 0 9z"/><path d="m15 23h2v3h-2z"/><path d="m1 62h62v2h-62z"/><path d="m5.707 48.707-1.414-1.414 11-11a1 1 0 0 1 .707-.293h5.558l19.7-21.673a1 1 0 0 1 .742-.327h2.54l11.701-13.651 1.518 1.3-12 14a1 1 0 0 1 -.759.351h-2.558l-19.702 21.673a1 1 0 0 1 -.74.327h-5.586z"/><path d="m.586 50h2.828v2h-2.828z" transform="matrix(.707 -.707 .707 .707 -35.477 16.352)"/><path d="m58 6h-2v-4h-4v-2h5a1 1 0 0 1 1 1z"/></g></svg>