<svg xmlns="http://www.w3.org/2000/svg" width="14.485" height="16.48" viewBox="0 0 14.485 16.48">
  <g id="location" transform="translate(-31)">
    <g id="Group_3837" data-name="Group 3837" transform="translate(31)">
      <g id="Group_3836" data-name="Group 3836">
        <path id="Path_4542" data-name="Path 4542" d="M40.994,10.889c1.754-2.752,1.533-2.409,1.584-2.48a5.271,5.271,0,0,0,.976-3.065,5.311,5.311,0,1,0-9.618,3.1l1.556,2.441C33.828,11.144,31,11.906,31,13.584c0,.611.4,1.483,2.3,2.162a15.24,15.24,0,0,0,4.942.735c3.477,0,7.242-.981,7.242-2.9C45.485,11.906,42.66,11.145,40.994,10.889ZM34.742,7.917l-.017-.024a4.345,4.345,0,1,1,7.069-.049c-.047.061.2-.316-3.552,5.566Zm3.5,7.6c-3.8,0-6.277-1.116-6.277-1.931,0-.548,1.274-1.448,4.1-1.8l1.774,2.783a.483.483,0,0,0,.814,0l1.774-2.783c2.822.351,4.1,1.252,4.1,1.8C44.519,14.392,42.063,15.515,38.242,15.515Z" transform="translate(-31)" fill="#ff8aa5"/>
      </g>
    </g>
    <g id="Group_3839" data-name="Group 3839" transform="translate(35.828 2.929)">
      <g id="Group_3838" data-name="Group 3838">
        <path id="Path_4543" data-name="Path 4543" d="M183.414,91a2.414,2.414,0,1,0,2.414,2.414A2.417,2.417,0,0,0,183.414,91Zm0,3.863a1.448,1.448,0,1,1,1.448-1.448A1.45,1.45,0,0,1,183.414,94.863Z" transform="translate(-181 -91)" fill="#ff8aa5"/>
      </g>
    </g>
  </g>
</svg>
