<svg xmlns="http://www.w3.org/2000/svg" width="24.428" height="27.333" viewBox="0 0 24.428 27.333">
  <path id="logout" d="M39.222,22.98v1.362a2.916,2.916,0,0,1-1.49,2.582,2.915,2.915,0,0,1-2.98,0l-6.057-3.5a2.916,2.916,0,0,1-1.49-2.582V2.981A2.984,2.984,0,0,1,30.185,0H43.524a2.984,2.984,0,0,1,2.981,2.981V6.747a.979.979,0,1,1-1.957,0V2.981a1.025,1.025,0,0,0-1.024-1.024H31.835l5.9,3.4a2.916,2.916,0,0,1,1.49,2.581V21.022h4.3A1.025,1.025,0,0,0,44.548,20V16.7a.979.979,0,1,1,1.957,0V20a2.984,2.984,0,0,1-2.981,2.981Zm9.069-10.511-1.078,1.078A.979.979,0,0,0,48.6,14.93l2.748-2.749a.978.978,0,0,0,0-1.384L48.6,8.05a.979.979,0,1,0-1.384,1.384l1.078,1.078H41.07a.979.979,0,0,0,0,1.957h7.221Z" transform="translate(-27.204)" fill="#fafafa" fill-rule="evenodd"/>
</svg>
