<svg xmlns="http://www.w3.org/2000/svg" width="24.566" height="22.193" viewBox="0 0 24.566 22.193">
  <g id="Online_Sale" data-name="Online Sale" transform="translate(0 -24.725)">
    <path id="Path_4503" data-name="Path 4503" d="M23.725,24.725H.841A.842.842,0,0,0,0,25.566V41.1a.842.842,0,0,0,.841.841h4.73l.1.452a1.209,1.209,0,0,0,.966.931,2.423,2.423,0,1,0,4.246.019h2.012a2.423,2.423,0,1,0,4.252-.007,1.209,1.209,0,0,0,1.054-.942L20.816,30.2h3.029V41.1a.12.12,0,0,1-.12.12H19.8a.36.36,0,0,0,0,.721h3.928a.842.842,0,0,0,.841-.841V25.566a.842.842,0,0,0-.841-.841ZM8.752,46.2a1.7,1.7,0,1,1,1.7-1.7A1.7,1.7,0,0,1,8.752,46.2Zm6.268,0a1.7,1.7,0,1,1,1.7-1.7A1.7,1.7,0,0,1,15.02,46.2Zm7.8-16.714a1.2,1.2,0,0,0-.808-2.09H20.878a2.384,2.384,0,0,0-2.319,1.873l-.047.217h-3.4a.36.36,0,0,0,0,.721h3.249l-.366,1.7H4.9a1.2,1.2,0,0,0-1.175,1.454L4.617,37.5a.36.36,0,1,0,.7-.151L4.433,33.21a.481.481,0,0,1,.47-.582h13.38a.361.361,0,0,0,.352-.285l.629-2.925a1.659,1.659,0,0,1,1.614-1.3h1.134a.481.481,0,0,1,0,.961H20.878a.693.693,0,0,0-.674.544L17.493,42.238a.483.483,0,0,1-.47.38h-.474a2.417,2.417,0,0,0-3.057,0H10.28a2.417,2.417,0,0,0-3.057,0h-.38a.483.483,0,0,1-.47-.38l-.74-3.443a.36.36,0,1,0-.7.151l.488,2.271H.841a.12.12,0,0,1-.12-.12V30.2H13.442a.36.36,0,0,0,0-.721H.721V25.566a.12.12,0,0,1,.12-.12H23.725a.12.12,0,0,1,.12.12v3.917Z" transform="translate(0 0)" fill="#463b3b"/>
    <circle id="Ellipse_13" data-name="Ellipse 13" cx="0.703" cy="0.703" r="0.703" transform="translate(1.962 26.748)" fill="#463b3b"/>
    <circle id="Ellipse_14" data-name="Ellipse 14" cx="0.703" cy="0.703" r="0.703" transform="translate(4.099 26.748)" fill="#463b3b"/>
    <circle id="Ellipse_15" data-name="Ellipse 15" cx="0.703" cy="0.703" r="0.703" transform="translate(6.237 26.748)" fill="#463b3b"/>
    <path id="Path_4504" data-name="Path 4504" d="M220.6,334.913h-2.12a.36.36,0,0,0-.359.39l.109,1.327a.36.36,0,0,0,.359.331h1.9a.36.36,0,0,0,.359-.331l.109-1.327a.36.36,0,0,0-.359-.39Zm-.441,1.327h-1.237l-.05-.606h1.337Z" transform="translate(-207.655 -295.305)" fill="#463b3b"/>
    <path id="Path_4505" data-name="Path 4505" d="M116.642,211.232a.36.36,0,0,0,.352.285h2.523a.363.363,0,0,0,.359-.39l-.109-1.327a.36.36,0,0,0-.359-.331h-2.7a.363.363,0,0,0-.352.436Zm2.434-1.042.05.606h-1.84l-.13-.606Z" transform="translate(-110.765 -175.88)" fill="#463b3b"/>
    <path id="Path_4506" data-name="Path 4506" d="M143.682,334.913a.36.36,0,0,0-.352.436l.285,1.327a.361.361,0,0,0,.352.285h1.725a.36.36,0,0,0,.359-.39l-.109-1.327a.36.36,0,0,0-.359-.331Zm.576,1.327-.13-.606h1.123l.05.606Z" transform="translate(-136.445 -295.305)" fill="#463b3b"/>
    <path id="Path_4507" data-name="Path 4507" d="M130.2,272.192a.36.36,0,0,0-.352.436l.285,1.327a.36.36,0,0,0,.352.285h2.124a.36.36,0,0,0,.359-.39l-.109-1.327a.36.36,0,0,0-.359-.331Zm.576,1.327-.13-.606h1.522l.05.606Z" transform="translate(-123.614 -235.593)" fill="#463b3b"/>
    <path id="Path_4508" data-name="Path 4508" d="M207.889,211.187a.36.36,0,0,0,.359.331h2.893a.36.36,0,0,0,.359-.331l.109-1.327a.363.363,0,0,0-.359-.39h-3.111a.363.363,0,0,0-.359.39Zm2.97-1-.05.606h-2.229l-.05-.606Z" transform="translate(-197.809 -175.88)" fill="#463b3b"/>
    <path id="Path_4509" data-name="Path 4509" d="M300.734,274.239h2.218a.361.361,0,0,0,.352-.285l.285-1.327a.36.36,0,0,0-.352-.436h-2.394a.36.36,0,0,0-.359.331l-.109,1.327a.36.36,0,0,0,.359.39Zm.441-1.327h1.615l-.13.606h-1.535Z" transform="translate(-285.962 -235.593)" fill="#463b3b"/>
    <path id="Path_4510" data-name="Path 4510" d="M305.887,211.517H308.5a.361.361,0,0,0,.352-.285l.285-1.327a.363.363,0,0,0-.352-.436H306a.36.36,0,0,0-.359.331l-.109,1.327A.363.363,0,0,0,305.887,211.517Zm.441-1.327h2.014l-.13.606h-1.934Z" transform="translate(-290.867 -175.88)" fill="#463b3b"/>
    <path id="Path_4511" data-name="Path 4511" d="M215.932,272.192h-2.616a.36.36,0,0,0-.359.39l.109,1.327a.36.36,0,0,0,.359.331h2.4a.36.36,0,0,0,.359-.331l.109-1.327a.36.36,0,0,0-.359-.39Zm-.441,1.327h-1.733l-.05-.606h1.833Z" transform="translate(-202.738 -235.593)" fill="#463b3b"/>
    <path id="Path_4512" data-name="Path 4512" d="M295.569,336.96h1.819a.361.361,0,0,0,.352-.285l.285-1.327a.36.36,0,0,0-.352-.436h-1.995a.36.36,0,0,0-.359.331l-.109,1.327a.36.36,0,0,0,.359.39Zm.441-1.327h1.217l-.13.606H295.96Z" transform="translate(-281.044 -295.304)" fill="#463b3b"/>
    <path id="Path_4513" data-name="Path 4513" d="M170.126,423.882a.619.619,0,1,0,.619.619A.619.619,0,0,0,170.126,423.882Z" transform="translate(-161.374 -380.005)" fill="#463b3b"/>
    <path id="Path_4514" data-name="Path 4514" d="M300.773,423.882a.619.619,0,1,0,.619.619A.619.619,0,0,0,300.773,423.882Z" transform="translate(-285.753 -380.005)" fill="#463b3b"/>
  </g>
</svg>
