<svg xmlns="http://www.w3.org/2000/svg" width="30.124" height="27.333" viewBox="0 0 30.124 27.333">
  <g id="Products" transform="translate(-5 -7.502)">
    <path id="Path_4478" data-name="Path 4478" d="M6.428,25.422a5.987,5.987,0,0,0,1.116-.266,2.061,2.061,0,0,1,2.145.671l2.1,2.538a.915.915,0,0,0,.977.324l1.665-.48a2.156,2.156,0,0,1,2.041.463L17.846,29.9a1.353,1.353,0,0,0,1.567.162l1.127-.648a2.113,2.113,0,0,1,2.191.046l1.694,1.07a.907.907,0,0,0,1.272-.318l.74-1.307a2.133,2.133,0,0,1,2.047-1.075l1.2.1A1.211,1.211,0,0,0,30.9,27.22l.387-.85A2.042,2.042,0,0,1,33.1,25.185a1.261,1.261,0,0,0,1.48-.861l.237-1C37.9,7.8,16.67,2.871,7.914,12.257A11.534,11.534,0,0,0,6.428,25.422Zm25.156-2.1a.58.58,0,0,1-.578.578h-1.4a.578.578,0,1,1,0-1.156h1.4a.58.58,0,0,1,.578.578Zm-3.03-8.325,1.4-.058A.579.579,0,0,1,30,16.091l-1.4.058h-.023a.579.579,0,0,1-.023-1.156Zm-8.21,1.5c6.581.172,6.581,4.935,0,5.111C13.762,21.43,13.764,16.667,20.344,16.5Zm2.9,10.337h-1.4a.578.578,0,1,1,0-1.156h1.4a.578.578,0,1,1,0,1.156Zm-1.4-14.9h1.4a.578.578,0,1,1,0,1.156h-1.4a.578.578,0,1,1,0-1.156ZM15.9,9.962h1.4a.578.578,0,1,1,0,1.156H15.9a.578.578,0,1,1,0-1.156ZM13.007,24.693h1.4a.578.578,0,1,1,0,1.156h-1.4a.578.578,0,1,1,0-1.156Zm-2.92-8.921h1.4a.578.578,0,1,1,0,1.156h-1.4a.578.578,0,1,1,0-1.156Z" transform="translate(0 0)" fill="#463b3b"/>
    <path id="Path_4479" data-name="Path 4479" d="M33.809,40.93c-.719-.024-.915.859-1.168,1.359a2.381,2.381,0,0,1-2.365,1.388c-.693-.012-1.727-.387-2.145.387l-.74,1.307a2.062,2.062,0,0,1-2.9.728L22.8,45.029a.971.971,0,0,0-1-.023l-1.122.648a2.5,2.5,0,0,1-2.914-.3l-1.376-1.231a1,1,0,0,0-.948-.214l-1.665.48a2.058,2.058,0,0,1-2.2-.705L9.486,41.15c-.435-.565-1.188-.214-1.734-.064a1.53,1.53,0,0,1-1.2-.058c.983,4.81,7.1,8.395,14.437,8.395,7.609,0,13.9-3.9,14.523-8.927a5.857,5.857,0,0,1-1.706.434Z" transform="translate(-0.687 -14.589)" fill="#463b3b"/>
  </g>
</svg>
