<?xml version="1.0" encoding="UTF-8"?>
<svg xmlns="http://www.w3.org/2000/svg" viewBox="0 0 64 64" width="512" height="512"><g id="Receive"><path d="M40.1958,51.75977,28,58.32587V32.59723l24-12.9231V32a1,1,0,0,0,2,0V18a1.03236,1.03236,0,0,0-.52588-.88037c-34.01563-18.31611-7.66245-4.12592-26-14a1.00114,1.00114,0,0,0-.94824,0l-26,14A1.03236,1.03236,0,0,0,0,18V46a1.0003,1.0003,0,0,0,.52588.88037l26,14A1.20211,1.20211,0,0,0,27,61a1.22791,1.22791,0,0,0,.47412-.11963L41.144,53.52051a.99992.99992,0,0,0-.94824-1.76074ZM27,30.86426l-6.55725-3.53082L44.33344,14.46918,50.89063,18ZM11.77588,22.6665,35.66638,9.80231c3.39,1.82537,2.09,1.1253,6.55774,3.53119L18.33447,26.1972C14.84214,24.31791,16.343,25.12589,11.77588,22.6665Zm-1.106,1.67725c4.38187,2.35795,2.85031,1.53355,6.66016,3.58508v6.72742l-6.66016-3.584ZM27,5.13574l6.55725,3.53082L9.66656,21.53082,3.10938,18ZM2,19.67413l6.66992,3.5915v8.40429a.99922.99922,0,0,0,.52637.88037l8.66016,4.66016a.99984.99984,0,0,0,1.47363-.88037V29.00574L26,32.59723V58.32581L2,45.40283Z"/><path d="M53,35A11,11,0,1,0,64,46,11.01245,11.01245,0,0,0,53,35Zm0,20a9,9,0,1,1,9-9A9.01047,9.01047,0,0,1,53,55Z"/><path d="M56.293,42.793,52,47.08594l-2.293-2.293A.99989.99989,0,0,0,48.293,46.207l3,3a.99963.99963,0,0,0,1.41406,0l5-5A.99989.99989,0,0,0,56.293,42.793Z"/></g></svg>
