<svg height="512" viewBox="0 0 64 64" width="512" xmlns="http://www.w3.org/2000/svg"><g id="Receive"><path d="m35 7.17-7.53-4.05a.98041.98041 0 0 0 -.93994 0l-25.53006 13.74 8.01 4.31z"/><path d="m17.01 25.48 26-14-5.9-3.17-26 14z"/><path d="m45.12 12.62-26 13.99 7.88 4.25 26-14z"/><path d="m10 30.7 6 3.24v-6.73l-6-3.23z"/><path d="m18 35.61a1.01165 1.01165 0 0 1 -.49.86 1.02957 1.02957 0 0 1 -.51.14.96623.96623 0 0 1 -.47-.12l-8-4.31a.98394.98394 0 0 1 -.53-.88v-8.39l-8-4.31v27.4a.98393.98393 0 0 0 .53.88l25.47 13.72v-28l-8-4.31z"/><path d="m54 35v-16.4l-26 14v28l15.27-8.23a11.99769 11.99769 0 0 1 10.73-17.37z"/><path d="m54 37a10 10 0 1 0 10 10 10.01648 10.01648 0 0 0 -10-10zm4.71 8.21-5 5a1.01424 1.01424 0 0 1 -1.42 0l-3-3a1.00412 1.00412 0 0 1 1.42-1.42l2.29 2.3 4.29-4.3a1.00412 1.00412 0 0 1 1.42 1.42z"/></g></svg>