<svg xmlns="http://www.w3.org/2000/svg" width="15.623" height="15.623" viewBox="0 0 15.623 15.623">
  <g id="Download" transform="translate(-24 -24)">
    <path id="Path_4515" data-name="Path 4515" d="M144.775,36.154a.808.808,0,0,0,1.143,0l3.047-3.047a.808.808,0,1,0-1.143-1.143l-1.668,1.668V24.808a.808.808,0,0,0-1.616,0v8.824l-1.668-1.668a.808.808,0,1,0-1.143,1.143Z" transform="translate(-113.535)" fill="#fff"/>
    <path id="Path_4516" data-name="Path 4516" d="M38.815,232a.808.808,0,0,0-.808.808V239H25.616v-6.2a.808.808,0,1,0-1.616,0v6.465a1.347,1.347,0,0,0,1.347,1.347H38.276a1.347,1.347,0,0,0,1.347-1.347v-6.465A.808.808,0,0,0,38.815,232Z" transform="translate(0 -200.997)" fill="#fff"/>
  </g>
</svg>
