<svg xmlns="http://www.w3.org/2000/svg" width="13.56" height="13.56" viewBox="0 0 13.56 13.56">
  <g id="editing" transform="translate(0 -0.001)">
    <path id="Path_31" data-name="Path 31" d="M10.992,85.692a.4.4,0,0,0-.4.4v5.827a.663.663,0,0,1-.662.662H1.457a.663.663,0,0,1-.662-.662V83.441a.663.663,0,0,1,.662-.662H7.284a.4.4,0,0,0,0-.795H1.457A1.458,1.458,0,0,0,0,83.441v8.475a1.458,1.458,0,0,0,1.457,1.457H9.932a1.458,1.458,0,0,0,1.457-1.457V86.089A.4.4,0,0,0,10.992,85.692Z" transform="translate(0 -79.812)"/>
    <path id="Path_32" data-name="Path 32" d="M187.7,1.021l-.749-.749a.928.928,0,0,0-1.311,0l-5.993,5.993a.4.4,0,0,0-.109.2l-.375,1.873a.4.4,0,0,0,.467.467l1.873-.375a.4.4,0,0,0,.2-.109L187.7,2.332h0a.928.928,0,0,0,0-1.311Zm-6.47,6.657-1.171.234.234-1.171,4.878-4.878.936.936Zm5.908-5.908-.468.468-.936-.936L186.2.833a.133.133,0,0,1,.187,0l.749.749A.133.133,0,0,1,187.139,1.77Z" transform="translate(-174.412 0)"/>
  </g>
</svg>
