<svg xmlns="http://www.w3.org/2000/svg" width="29.901" height="24" viewBox="0 0 29.901 24">
  <g id="FoodPanda" transform="translate(0 -4.778)">
    <path id="Path_4502" data-name="Path 4502" d="M18.581,21.546a2.042,2.042,0,0,1-2.1,1.794,2.2,2.2,0,0,1-1.049-.246,1.1,1.1,0,0,0-1.157,0,2.205,2.205,0,0,1-1.049.246,2.042,2.042,0,0,1-2.1-1.792.476.476,0,0,1,.416-.53.5.5,0,0,1,.529.416,1.11,1.11,0,0,0,1.155.953,1.061,1.061,0,0,0,.955-.459,1.3,1.3,0,0,0,.128-.249,7.179,7.179,0,0,1-.834-.669c-.458-.414-.853-.822-.855-.826a.367.367,0,0,1-.075-.249.289.289,0,0,1,.165-.215,5.661,5.661,0,0,1,2.213-.529,4.64,4.64,0,0,1,2.09.54.366.366,0,0,1,.145.209.3.3,0,0,1-.077.246c-.041.043-.424.436-.854.825a7.117,7.117,0,0,1-.832.667,1.071,1.071,0,0,0,1.083.71,1.06,1.06,0,0,0,.955-.459,1.269,1.269,0,0,0,.127-.243,1.667,1.667,0,0,0,.052-.17.721.721,0,0,1,.2-.4.472.472,0,0,1,.29-.1l.062,0A.48.48,0,0,1,18.581,21.546Zm8.462-6.6c-.072.052-.142.1-.212.149a3.905,3.905,0,0,0-.011.793q.034.44.035.887a12,12,0,1,1-24,0c0-.318.012-.634.036-.947a5.745,5.745,0,0,0,.03-.839l-.03-.02C.041,12.841-.845,9.246.879,6.932A4.875,4.875,0,0,1,4.866,5.077a6.923,6.923,0,0,1,2.878.656A3.151,3.151,0,0,0,10.02,5.8a11.994,11.994,0,0,1,9.783.051,3.023,3.023,0,0,0,2.254-.067,6.926,6.926,0,0,1,2.974-.7A4.877,4.877,0,0,1,29.02,6.933C30.745,9.246,29.858,12.841,27.043,14.946Zm-1.817,1.829A10.375,10.375,0,1,0,14.851,27.15,10.387,10.387,0,0,0,25.225,16.775Zm-11.474.007a3.993,3.993,0,0,0,.167-2.591,2.552,2.552,0,0,0-1.475-1.722,2.309,2.309,0,0,0-.862-.165,3.52,3.52,0,0,0-3.059,2.388c-.721,1.8-.134,3.737,1.308,4.313a2.309,2.309,0,0,0,.862.165A3.52,3.52,0,0,0,13.752,16.782Zm3.7-4.315A2.861,2.861,0,0,0,15.84,15.33a5.124,5.124,0,0,0,1.085,2.712,3.136,3.136,0,0,0,2.282,1.126A2.308,2.308,0,0,0,20.069,19a2.86,2.86,0,0,0,1.615-2.863A5.124,5.124,0,0,0,20.6,13.428,2.889,2.889,0,0,0,17.456,12.467Z" fill="#463b3b"/>
  </g>
</svg>
