<svg xmlns="http://www.w3.org/2000/svg" width="23.667" height="23.667" viewBox="0 0 23.667 23.667">
  <g id="Kiosk" transform="translate(-2 -2)">
    <path id="Path_4499" data-name="Path 4499" d="M22.6,21.143H5.69V11H4V26.214a.845.845,0,0,0,.845.845h18.6a.845.845,0,0,0,.845-.845V11H22.6Z" transform="translate(-0.31 -1.393)" fill="#463b3b"/>
    <path id="Path_4500" data-name="Path 4500" d="M11,21.381h8.452A3.385,3.385,0,0,0,16.071,18h-1.69A3.385,3.385,0,0,0,11,21.381Z" transform="translate(-1.393 -2.476)" fill="#463b3b"/>
    <circle id="Ellipse_12" data-name="Ellipse 12" cx="2.5" cy="2.5" r="2.5" transform="translate(11 10.667)" fill="#463b3b"/>
    <path id="Path_4501" data-name="Path 4501" d="M24.821,2H2.845A.845.845,0,0,0,2,2.845V7.917a.845.845,0,0,0,.845.845h1.69v-3.8a.423.423,0,0,1,.845,0v3.8H7.917v-3.8a.423.423,0,1,1,.845,0v3.8H11.3v-3.8a.423.423,0,0,1,.845,0v3.8h3.381v-3.8a.423.423,0,0,1,.845,0v3.8H18.9v-3.8a.423.423,0,0,1,.845,0v3.8h2.536v-3.8a.423.423,0,1,1,.845,0v3.8h1.69a.845.845,0,0,0,.845-.845V2.845A.845.845,0,0,0,24.821,2Z" fill="#463b3b"/>
  </g>
</svg>
