<svg xmlns="http://www.w3.org/2000/svg" width="386.338" height="316.359" viewBox="0 0 386.338 316.359">
  <g id="No_Content_Found" data-name="No Content Found" transform="translate(-20.831 -290.286)">
    <g id="Group_688" data-name="Group 688" transform="translate(-52.48 -32.198)" opacity="0.75">
      <g id="Group_668" data-name="Group 668" transform="translate(301.783 322.484)">
        <rect id="Rectangle_150" data-name="Rectangle 150" width="145.991" height="95.604" transform="translate(157.867 95.604) rotate(180)" fill="#e6e6e6"/>
        <rect id="Rectangle_151" data-name="Rectangle 151" width="148.364" height="95.604" transform="translate(155.785 95.604) rotate(180)" fill="#f0f0f0"/>
        <rect id="Rectangle_152" data-name="Rectangle 152" width="145.991" height="18.763" transform="translate(157.867 114.366) rotate(180)" fill="#e6e6e6"/>
        <rect id="Rectangle_153" data-name="Rectangle 153" width="148.364" height="18.763" transform="translate(148.364 114.366) rotate(180)" fill="#f0f0f0"/>
        <rect id="Rectangle_154" data-name="Rectangle 154" width="83.131" height="135.892" transform="translate(149.549 6.236) rotate(90)" fill="#fafafa"/>
        <path id="Path_1873" data-name="Path 1873" d="M393.2,172.849,375.845,89.718H348.761l17.357,83.131Z" transform="translate(-274.295 -83.481)" fill="#fff"/>
        <path id="Path_1874" data-name="Path 1874" d="M416.922,166.438a.445.445,0,0,0,.445-.445V93.571a.446.446,0,0,0-.891,0v72.422A.446.446,0,0,0,416.922,166.438Z" transform="translate(-270.26 -83.278)" fill="#f0f0f0"/>
        <path id="Path_1875" data-name="Path 1875" d="M361.22,172.849,343.863,89.718H333.3l17.357,83.131Z" transform="translate(-275.216 -83.481)" fill="#fff"/>
        <rect id="Rectangle_155" data-name="Rectangle 155" width="83.131" height="0.792" transform="translate(14.449 6.236) rotate(90)" fill="#e6e6e6"/>
        <path id="Path_1876" data-name="Path 1876" d="M284.095,98.984H430.086L430.66,92H284.669Z" transform="translate(-278.149 -83.345)" fill="#ebebeb" opacity="0.6"/>
        <path id="Path_1877" data-name="Path 1877" d="M284.095,109.786H430.086l.574-6.979H284.669Z" transform="translate(-278.149 -82.701)" fill="#ebebeb" opacity="0.6"/>
        <path id="Path_1878" data-name="Path 1878" d="M284.095,120.588H430.086l.574-6.979H284.669Z" transform="translate(-278.149 -82.057)" fill="#ebebeb" opacity="0.6"/>
        <path id="Path_1879" data-name="Path 1879" d="M284.095,131.39H430.086l.574-6.979H284.669Z" transform="translate(-278.149 -81.414)" fill="#ebebeb" opacity="0.6"/>
        <path id="Path_1880" data-name="Path 1880" d="M284.095,142.192H430.086l.574-6.979H284.669Z" transform="translate(-278.149 -80.77)" fill="#ebebeb" opacity="0.6"/>
        <path id="Path_1881" data-name="Path 1881" d="M284.095,152.994H430.086l.574-6.979H284.669Z" transform="translate(-278.149 -80.126)" fill="#ebebeb" opacity="0.6"/>
      </g>
      <g id="Group_671" data-name="Group 671" transform="translate(330.766 499.968)">
        <g id="Group_670" data-name="Group 670" transform="translate(0)">
          <g id="Group_669" data-name="Group 669">
            <rect id="Rectangle_156" data-name="Rectangle 156" width="30.61" height="6.035" transform="translate(77.311 69.348)" fill="#e6e6e6"/>
            <rect id="Rectangle_157" data-name="Rectangle 157" width="5.651" height="138.875" transform="translate(25.224 138.875) rotate(180)" fill="#e6e6e6"/>
            <rect id="Rectangle_158" data-name="Rectangle 158" width="77.311" height="6.035" transform="translate(77.311 75.383) rotate(180)" fill="#f5f5f5"/>
            <rect id="Rectangle_159" data-name="Rectangle 159" width="30.61" height="6.035" transform="translate(77.311 102.372)" fill="#e6e6e6"/>
            <rect id="Rectangle_160" data-name="Rectangle 160" width="77.311" height="6.035" transform="translate(77.311 108.407) rotate(180)" fill="#f5f5f5"/>
            <rect id="Rectangle_161" data-name="Rectangle 161" width="30.61" height="6.035" transform="translate(77.311 3.3)" fill="#e6e6e6"/>
            <rect id="Rectangle_162" data-name="Rectangle 162" width="77.311" height="6.035" transform="translate(77.311 9.335) rotate(180)" fill="#f5f5f5"/>
            <rect id="Rectangle_163" data-name="Rectangle 163" width="30.61" height="6.035" transform="translate(77.311 36.324)" fill="#e6e6e6"/>
            <rect id="Rectangle_164" data-name="Rectangle 164" width="77.311" height="6.035" transform="translate(77.311 42.359) rotate(180)" fill="#f5f5f5"/>
          </g>
        </g>
        <rect id="Rectangle_165" data-name="Rectangle 165" width="5.651" height="138.875" transform="translate(102.535 138.875) rotate(180)" fill="#e6e6e6"/>
        <rect id="Rectangle_166" data-name="Rectangle 166" width="5.651" height="138.875" transform="translate(77.311 138.875) rotate(180)" fill="#f5f5f5"/>
        <rect id="Rectangle_167" data-name="Rectangle 167" width="5.651" height="138.875" transform="translate(5.651 138.875) rotate(180)" fill="#f5f5f5"/>
      </g>
      <g id="Group_673" data-name="Group 673" transform="translate(75.974 526.641)">
        <g id="Group_672" data-name="Group 672" transform="translate(0)">
          <rect id="Rectangle_168" data-name="Rectangle 168" width="57.83" height="112.203" transform="translate(57.83 112.203) rotate(180)" fill="#e6e6e6"/>
          <path id="Path_1882" data-name="Path 1882" d="M80.816,383.27H65.374V367.781H97.007Z" transform="translate(-65.374 -271.068)" fill="#fafafa"/>
          <rect id="Rectangle_169" data-name="Rectangle 169" width="57.83" height="112.203" transform="translate(215.507 112.203) rotate(180)" fill="#e6e6e6"/>
          <rect id="Rectangle_170" data-name="Rectangle 170" width="171.154" height="106.871" transform="translate(171.154 106.871) rotate(180)" fill="#fafafa"/>
          <path id="Path_1883" data-name="Path 1883" d="M213.239,383.27h15.442V367.781H197.048Z" transform="translate(-57.527 -271.068)" fill="#fafafa"/>
          <rect id="Rectangle_171" data-name="Rectangle 171" width="147.195" height="26.745" transform="translate(159.175 66.569) rotate(180)" fill="#f0f0f0"/>
          <rect id="Rectangle_172" data-name="Rectangle 172" width="147.195" height="26.745" transform="translate(159.175 99.03) rotate(180)" fill="#f0f0f0"/>
          <path id="Rectangle_173" data-name="Rectangle 173" d="M4.576,0H96.361a4.576,4.576,0,0,1,4.576,4.576v.6a0,0,0,0,1,0,0H0a0,0,0,0,1,0,0v-.6A4.576,4.576,0,0,1,4.576,0Z" transform="translate(136.046 42.683) rotate(180)" fill="#fafafa"/>
          <rect id="Rectangle_174" data-name="Rectangle 174" width="147.195" height="26.745" transform="translate(159.175 34.107) rotate(180)" fill="#f0f0f0"/>
          <path id="Rectangle_175" data-name="Rectangle 175" d="M4.576,0H96.361a4.576,4.576,0,0,1,4.576,4.576v.6a0,0,0,0,1,0,0H0a0,0,0,0,1,0,0v-.6A4.576,4.576,0,0,1,4.576,0Z" transform="translate(136.046 10.222) rotate(180)" fill="#fafafa"/>
          <path id="Rectangle_176" data-name="Rectangle 176" d="M4.576,0H96.361a4.576,4.576,0,0,1,4.576,4.576v.6a0,0,0,0,1,0,0H0a0,0,0,0,1,0,0v-.6A4.576,4.576,0,0,1,4.576,0Z" transform="translate(136.046 75.144) rotate(180)" fill="#fafafa"/>
        </g>
      </g>
      <g id="Group_674" data-name="Group 674" transform="translate(73.312 322.484)">
        <rect id="Rectangle_177" data-name="Rectangle 177" width="145.991" height="95.604" transform="translate(157.867 95.604) rotate(180)" fill="#e6e6e6"/>
        <rect id="Rectangle_178" data-name="Rectangle 178" width="148.364" height="95.604" transform="translate(155.785 95.604) rotate(180)" fill="#f0f0f0"/>
        <rect id="Rectangle_179" data-name="Rectangle 179" width="145.991" height="18.763" transform="translate(157.867 114.366) rotate(180)" fill="#e6e6e6"/>
        <rect id="Rectangle_180" data-name="Rectangle 180" width="148.364" height="18.763" transform="translate(148.364 114.366) rotate(180)" fill="#f0f0f0"/>
        <rect id="Rectangle_181" data-name="Rectangle 181" width="83.131" height="135.892" transform="translate(149.549 6.236) rotate(90)" fill="#fafafa"/>
        <path id="Path_1884" data-name="Path 1884" d="M177.579,172.849,160.222,89.718H133.138l17.357,83.131Z" transform="translate(-58.673 -83.481)" fill="#fff"/>
        <path id="Path_1885" data-name="Path 1885" d="M201.3,166.438a.445.445,0,0,0,.446-.445V93.571a.446.446,0,0,0-.891,0v72.422A.445.445,0,0,0,201.3,166.438Z" transform="translate(-54.637 -83.278)" fill="#f0f0f0"/>
        <path id="Path_1886" data-name="Path 1886" d="M145.6,172.849,128.241,89.718H117.682l17.357,83.131Z" transform="translate(-59.594 -83.481)" fill="#fff"/>
        <rect id="Rectangle_182" data-name="Rectangle 182" width="83.131" height="0.792" transform="translate(14.449 6.236) rotate(90)" fill="#e6e6e6"/>
        <path id="Path_1887" data-name="Path 1887" d="M68.472,98.984H214.464L215.038,92H69.046Z" transform="translate(-62.526 -83.345)" fill="#ebebeb" opacity="0.6"/>
        <path id="Path_1888" data-name="Path 1888" d="M68.472,102.7H214.464l.574-6.979H69.046Z" transform="translate(-62.526 -83.123)" fill="#ebebeb" opacity="0.6"/>
        <path id="Path_1889" data-name="Path 1889" d="M68.472,106.415H214.464l.574-6.979H69.046Z" transform="translate(-62.526 -82.902)" fill="#ebebeb" opacity="0.6"/>
        <path id="Path_1890" data-name="Path 1890" d="M68.472,110.13H214.464l.574-6.979H69.046Z" transform="translate(-62.526 -82.68)" fill="#ebebeb" opacity="0.6"/>
        <path id="Path_1891" data-name="Path 1891" d="M68.472,113.845H214.464l.574-6.979H69.046Z" transform="translate(-62.526 -82.459)" fill="#ebebeb" opacity="0.6"/>
        <path id="Path_1892" data-name="Path 1892" d="M68.472,117.561H214.464l.574-6.979H69.046Z" transform="translate(-62.526 -82.238)" fill="#ebebeb" opacity="0.6"/>
      </g>
      <g id="Group_675" data-name="Group 675" transform="translate(88.371 448.754)">
        <rect id="Rectangle_183" data-name="Rectangle 183" width="5.047" height="56.256" transform="translate(25.116 74.459) rotate(180)" fill="#f5f5f5"/>
        <rect id="Rectangle_184" data-name="Rectangle 184" width="1.426" height="56.256" transform="translate(22.144 74.42) rotate(180)" fill="#fafafa"/>
        <rect id="Rectangle_185" data-name="Rectangle 185" width="0.559" height="56.256" transform="translate(23.3 74.42) rotate(180)" fill="#fafafa"/>
        <path id="Rectangle_186" data-name="Rectangle 186" d="M0,0H37.365a0,0,0,0,1,0,0V.265a4.443,4.443,0,0,1-4.443,4.443H4.443A4.443,4.443,0,0,1,0,.265V0A0,0,0,0,1,0,0Z" transform="translate(41.275 77.887) rotate(180)" fill="#f0f0f0"/>
        <path id="Path_1893" data-name="Path 1893" d="M89.917,255.376h0a1.455,1.455,0,0,0,1.452-1.452V217.04a1.456,1.456,0,0,0-1.452-1.452h0a1.457,1.457,0,0,0-1.452,1.452v36.884A1.456,1.456,0,0,0,89.917,255.376Z" transform="translate(-76.395 -202.25)" fill="#f0f0f0"/>
        <path id="Path_1894" data-name="Path 1894" d="M77.073,234.574h45.184L117.06,203H82.271Z" transform="translate(-77.073 -203)" fill="#e0e0e0"/>
      </g>
      <g id="Window_No_Data" data-name="Window No Data" transform="translate(137.418 394.098)">
        <g id="Group_687" data-name="Group 687" transform="translate(0 0)">
          <g id="Group_679" data-name="Group 679">
            <rect id="Rectangle_187" data-name="Rectangle 187" width="1.06" height="19.591" transform="matrix(0.997, -0.072, 0.072, 0.997, 0, 54.053)" fill="#407bff"/>
            <rect id="Rectangle_188" data-name="Rectangle 188" width="1.06" height="7.37" transform="translate(2.134 83.684) rotate(-4.121)" fill="#407bff"/>
            <path id="Path_1897" data-name="Path 1897" d="M351.664,324.919H124.744a10.222,10.222,0,0,1-10-9.332L103.591,160.75a8.59,8.59,0,0,1,8.659-9.332H339.17a10.222,10.222,0,0,1,10,9.332l11.15,154.837A8.591,8.591,0,0,1,351.664,324.919Z" transform="translate(-103.093 -151.418)" fill="#242d48"/>
            <g id="Group_678" data-name="Group 678" transform="translate(1.344)">
              <g id="Group_677" data-name="Group 677" transform="translate(-0.672 0.331)">
                <path id="Path_1898" data-name="Path 1898" d="M352.485,324.919H125.565a10.222,10.222,0,0,1-10-9.332L104.412,160.75a8.591,8.591,0,0,1,8.659-9.332h226.92a10.222,10.222,0,0,1,10,9.332l11.15,154.837A8.591,8.591,0,0,1,352.485,324.919Z" transform="translate(-104.388 -151.418)" fill="#463b3b"/>
              </g>
              <path id="Path_1900" data-name="Path 1900" d="M340.076,155.821H113.156q-.385,0-.76.031c-5.8.478-4.616,9.3,1.239,9.3H340.942c5.854,0,5.768-8.823-.1-9.3Q340.461,155.822,340.076,155.821Z" transform="translate(-104.137 -151.156)" fill="#463b3b"/>
              <path id="Path_1901" data-name="Path 1901" d="M118.719,160.344a1.965,1.965,0,0,1-1.986,2.14,2.336,2.336,0,0,1-2.293-2.14,1.963,1.963,0,0,1,1.986-2.138A2.335,2.335,0,0,1,118.719,160.344Z" transform="translate(-103.789 -151.013)" fill="#463b3b"/>
              <path id="Path_1902" data-name="Path 1902" d="M125.587,160.344a1.965,1.965,0,0,1-1.986,2.14,2.336,2.336,0,0,1-2.293-2.14,1.962,1.962,0,0,1,1.985-2.138A2.335,2.335,0,0,1,125.587,160.344Z" transform="translate(-103.38 -151.013)" fill="#463b3b"/>
              <path id="Path_1903" data-name="Path 1903" d="M132.455,160.344a1.965,1.965,0,0,1-1.986,2.14,2.336,2.336,0,0,1-2.293-2.14,1.962,1.962,0,0,1,1.985-2.138A2.337,2.337,0,0,1,132.455,160.344Z" transform="translate(-102.971 -151.013)" fill="#463b3b"/>
            </g>
            <path id="Path_1904" data-name="Path 1904" d="M345.784,308.119H128.671a3.7,3.7,0,0,1-3.626-3.383L115.875,177.4a3.106,3.106,0,0,1,3.14-3.383H336.128a3.7,3.7,0,0,1,3.627,3.383l9.169,127.334A3.106,3.106,0,0,1,345.784,308.119Z" transform="translate(-102.36 -150.071)" fill="#fff"/>
          </g>
        </g>
      </g>
    </g>
    <text id="No_Content_Found-2" data-name="No Content Found" transform="translate(142 453.966)" fill="#1c2f33" font-size="16" font-family="Poppins-Regular, Poppins"><tspan x="0" y="0">No Content Found</tspan></text>
  </g>
</svg>
