<svg xmlns="http://www.w3.org/2000/svg" width="53.826" height="65.637" viewBox="0 0 53.826 65.637">
  <g id="notification" transform="translate(-0.499 -4.429)">
    <path id="Path_4608" data-name="Path 4608" d="M153.6,400.451a8.207,8.207,0,1,0-8.207,8.193A8.2,8.2,0,0,0,153.6,400.451Zm0,0" transform="translate(-117.986 -338.578)" fill="#f7c92b"/>
    <path id="Path_4609" data-name="Path 4609" d="M182.116,392.258a8.21,8.21,0,0,0-2.385.353,8.191,8.191,0,0,1,0,15.681,8.2,8.2,0,1,0,2.385-16.034Zm0,0" transform="translate(-154.704 -338.578)" fill="#f2b51d"/>
    <path id="Path_4610" data-name="Path 4610" d="M167.412,41.992a4.86,4.86,0,1,1,3.813-5.721A4.867,4.867,0,0,1,167.412,41.992Zm0,0" transform="translate(-139.041 -27.938)" fill="#f7c92b"/>
    <path id="Path_4611" data-name="Path 4611" d="M191.4,36.271a4.867,4.867,0,0,0-5.731-3.807,4.973,4.973,0,0,0-.71.2,4.858,4.858,0,0,1,0,9.131,4.867,4.867,0,0,0,6.441-5.523Zm0,0" transform="translate(-159.218 -27.938)" fill="#f2b51d"/>
    <path id="Path_4612" data-name="Path 4612" d="M47.738,138.432H7.085a6.6,6.6,0,0,1-4.108-11.75l1.306-1.052a12.805,12.805,0,0,0,4.777-9.973v-6.91a18.491,18.491,0,0,1,36.981,0v7.038a12.805,12.805,0,0,0,4.615,9.841l1.272,1.058a6.644,6.644,0,0,1,2.395,5.107v.066a6.581,6.581,0,0,1-6.586,6.575Zm0,0" transform="translate(0 -77.93)" fill="#f7e249"/>
    <path id="Path_4613" data-name="Path 4613" d="M189.7,126.681l-1.272-1.058a12.806,12.806,0,0,1-4.615-9.842v-7.038a18.5,18.5,0,0,0-23.7-17.716,18.471,18.471,0,0,1,13.281,17.716v7.038a12.806,12.806,0,0,0,4.615,9.842l1.272,1.058a6.646,6.646,0,0,1,2.395,5.107v.066a6.581,6.581,0,0,1-6.586,6.575h10.42a6.581,6.581,0,0,0,6.586-6.575v-.066a6.644,6.644,0,0,0-2.395-5.107Zm0,0" transform="translate(-137.771 -77.927)" fill="#f7c92b"/>
  </g>
</svg>
