<svg xmlns="http://www.w3.org/2000/svg" width="34.663" height="38.336" viewBox="0 0 34.663 38.336">
  <g id="sales" transform="translate(-0.499 0)">
    <path id="Path_4544" data-name="Path 4544" d="M37.132,71.737a2.868,2.868,0,0,0-3.8-.112V62.392a.561.561,0,1,0-1.123,0V72.414a30.606,30.606,0,0,1-3.829,2.627V58.418a1.4,1.4,0,0,1,1.4-1.4H30.81a1.4,1.4,0,0,1,1.4,1.4v1.675a.561.561,0,1,0,1.123,0V58.418a2.527,2.527,0,0,0-2.524-2.524H29.784a2.527,2.527,0,0,0-2.524,2.524V75.486a5.9,5.9,0,0,1-1.028.191V63.839A2.54,2.54,0,0,0,23.695,61.3h-1a2.54,2.54,0,0,0-2.537,2.537V69.56l-1.028.546V68.2a2.286,2.286,0,0,0-2.284-2.284H15.338A2.286,2.286,0,0,0,13.055,68.2V73.33l-1.834.973L6.072,75.775A3.549,3.549,0,0,0,3.613,80.08L4.189,82.3a.562.562,0,1,0,1.087-.283L4.7,79.8a2.412,2.412,0,0,1,1.681-2.943l4.708-1.345,3.538,9.443a2.515,2.515,0,0,1-1.672,3.1L9.4,88.862a2.328,2.328,0,0,1-2.782-1.693L5.894,84.39a.562.562,0,1,0-1.087.283l.722,2.779a3.444,3.444,0,0,0,3.337,2.593,27.529,27.529,0,0,0,4.338-.9,3.46,3.46,0,0,0,2.62-4.09l12.308-3.013a7.082,7.082,0,0,0,2.794-1.4l5.989-4.921a2.664,2.664,0,0,0,.218-3.989ZM22.694,62.425h1a1.415,1.415,0,0,1,1.414,1.414V75.706H21.565c-.326,0-.1-.218-.082-.233l1.02-.827a5.338,5.338,0,0,0,1.848-3.187,2.227,2.227,0,0,0-3.071-2.486V63.839a1.415,1.415,0,0,1,1.414-1.414ZM14.178,68.2a1.162,1.162,0,0,1,1.161-1.161h1.507A1.162,1.162,0,0,1,18.006,68.2v2.5l-3.829,2.032V68.2ZM36.2,74.859l-5.99,4.921a5.946,5.946,0,0,1-2.348,1.175l-12.4,3.036-3.334-8.9,9.52-5.054a1.1,1.1,0,0,1,1.6,1.194A4.246,4.246,0,0,1,21.8,73.772l-1.02.827a1.254,1.254,0,0,0,.789,2.228l4.092,0h0a7,7,0,0,0,4.048-1.281l4.573-3.216a1.582,1.582,0,0,1,2.049.189,1.558,1.558,0,0,1-.127,2.337Zm0,0" transform="translate(-2.774 -51.709)" fill="#463b3b"/>
    <path id="Path_4545" data-name="Path 4545" d="M68.745,421.451a2.212,2.212,0,1,0-2.212,2.212A2.215,2.215,0,0,0,68.745,421.451Zm-3.3,0a1.089,1.089,0,1,1,1.089,1.089A1.09,1.09,0,0,1,65.443,421.451Zm0,0" transform="translate(-59.043 -387.848)" fill="#463b3b"/>
    <path id="Path_4546" data-name="Path 4546" d="M3.451,17.631l8.163-8.226,1.836.95a1.727,1.727,0,0,0,1.992-.29l4.443-4.277s-.122,2.2,1.728,2.2a1.73,1.73,0,0,0,1.727-1.728V1.727c0-.005,0-.011,0-.016A1.635,1.635,0,0,0,21.614,0h-4.49A1.729,1.729,0,0,0,15.4,1.727a1.7,1.7,0,0,0,1.932,1.727l-3.39,3.263-1.863-.963a1.721,1.721,0,0,0-2.02.317L1,15.2a1.729,1.729,0,0,0,.009,2.443,1.7,1.7,0,0,0,2.443-.009ZM1.8,15.989l9.056-9.126a.511.511,0,0,1,.707-.111L13.78,7.9a.561.561,0,0,0,.648-.094L19.11,3.3a.562.562,0,0,0-.39-.966h-1.6a.6.6,0,0,1,0-1.209h4.49a.528.528,0,0,1,.6.6s0,.01,0,.015V6.257a.6.6,0,0,1-1.209,0V4.468a.561.561,0,0,0-.951-.4L14.664,9.256a.6.6,0,0,1-.7.1l-2.2-1.139a.562.562,0,0,0-.657.1L2.654,16.84a.579.579,0,0,1-.855,0,.605.605,0,0,1,0-.855Zm0,0" transform="translate(0)" fill="#463b3b"/>
  </g>
</svg>
