<svg xmlns="http://www.w3.org/2000/svg" width="27.333" height="27.333" viewBox="0 0 27.333 27.333">
  <path id="Sale_Channel" data-name="Sale Channel" d="M17.022,17.965a25.27,25.27,0,0,1,3.323,4.3,6.46,6.46,0,0,1,.564,1.293c-.065-.006-.13-.009-.2-.009a2.126,2.126,0,0,0-.246,4.238,6.577,6.577,0,0,1-5.886,3.164c-4.718.08-8.241-4.337-5.765-8.685a25.267,25.267,0,0,1,3.323-4.3,1.41,1.41,0,0,0,.278.028h4.328A1.41,1.41,0,0,0,17.022,17.965ZM28.43,8.849a4.278,4.278,0,0,1,1.561.647l.832-.37.717.716-.37.832a4.277,4.277,0,0,1,.647,1.561l.849.327v1.013l-.849.327a4.277,4.277,0,0,1-.647,1.561l.37.832-.716.717-.832-.37a4.277,4.277,0,0,1-1.561.647l-.327.849H27.09l-.327-.849a4.277,4.277,0,0,1-1.561-.647l-.832.37-.717-.716.37-.832a4.277,4.277,0,0,1-.647-1.561l-.849-.327V12.563l.849-.327a4.277,4.277,0,0,1,.647-1.561l-.37-.832.716-.716.832.37a4.277,4.277,0,0,1,1.561-.647L27.09,8H28.1ZM27.6,10.832a2.238,2.238,0,1,0,2.238,2.238A2.238,2.238,0,0,0,27.6,10.832ZM34.089,18.1a1.245,1.245,0,0,0-1.123,1.781L30.118,22.85a1.245,1.245,0,0,0-1.338.236L26.41,21.916c0-.04.006-.08.006-.121A1.244,1.244,0,1,0,24,22.228l-2.7,2.355a1.243,1.243,0,1,0,.579.664l2.7-2.355a1.245,1.245,0,0,0,1.438-.187l2.371,1.169c0,.04-.006.08-.006.121a1.244,1.244,0,1,0,2.367-.537L33.6,20.487a1.244,1.244,0,1,0,.488-2.389Zm-.65,5.427h1.3a.552.552,0,0,1,.551.551V34.782a.552.552,0,0,1-.551.551h-1.3a.552.552,0,0,1-.551-.551V24.076A.552.552,0,0,1,33.439,23.525ZM28.98,28.312h1.3a.552.552,0,0,1,.551.551v5.918a.552.552,0,0,1-.551.551h-1.3a.552.552,0,0,1-.551-.551V28.863A.552.552,0,0,1,28.98,28.312Zm-4.459-1.638h1.3a.552.552,0,0,1,.551.551v7.556a.552.552,0,0,1-.551.551h-1.3a.552.552,0,0,1-.551-.551V27.226A.552.552,0,0,1,24.521,26.675Zm-4.459,4.051a.552.552,0,0,0-.551.551v3.5a.552.552,0,0,0,.551.551h1.3a.552.552,0,0,0,.551-.551v-3.5a.552.552,0,0,0-.551-.551ZM12.416,17.111h4.328a.529.529,0,1,0,0-1.058H12.416a.529.529,0,1,0,0,1.058Zm.315-1.94-1.147-1.147a1,1,0,0,1,1.244-1.543.512.512,0,0,0,.778-.322,1,1,0,0,1,1.948,0,.512.512,0,0,0,.778.322,1,1,0,0,1,1.244.134h0a1,1,0,0,1,0,1.41l-1.147,1.147Zm1.389,4.386V20.2q-.074.011-.146.026a2.762,2.762,0,0,0-1.195.548,2.07,2.07,0,0,0-.791,1.753,1.916,1.916,0,0,0,.926,1.581,4.159,4.159,0,0,0,1.583.552,3.9,3.9,0,0,1,1.353.432,1.25,1.25,0,0,1,.642.95c.006.053.01.1.011.129a1.009,1.009,0,0,1-.43.853,2.387,2.387,0,0,1-1.134.414c-.107.013-.2.02-.291.022a2.373,2.373,0,0,1-1.363-.365,1.588,1.588,0,0,1-.678-.951.44.44,0,1,0-.854.21A2.458,2.458,0,0,0,12.8,27.83a3.118,3.118,0,0,0,1.321.481v.64a.441.441,0,1,0,.882,0v-.632l.04,0a3.271,3.271,0,0,0,1.561-.59,1.85,1.85,0,0,0,.778-1.573c0-.078-.007-.148-.014-.212a2.09,2.09,0,0,0-1.062-1.6,4.738,4.738,0,0,0-1.666-.546,3.32,3.32,0,0,1-1.245-.421,1.079,1.079,0,0,1-.526-.885,1.217,1.217,0,0,1,.467-1.03,1.877,1.877,0,0,1,.812-.369,2.186,2.186,0,0,1,.962.023,1.779,1.779,0,0,1,1.232,1.058.441.441,0,1,0,.813-.341,2.643,2.643,0,0,0-1.831-1.572,2.917,2.917,0,0,0-.32-.062v-.638a.441.441,0,0,0-.882,0Z" transform="translate(-8 -8)" fill="#463b3b" fill-rule="evenodd"/>
</svg>
