<svg xmlns="http://www.w3.org/2000/svg" width="27.333" height="27.333" viewBox="0 0 27.333 27.333">
  <g id="Settings" transform="translate(0 0)">
    <g id="Group_3590" data-name="Group 3590" transform="translate(5.75 12.301)">
      <g id="Group_3589" data-name="Group 3589">
        <path id="Path_4389" data-name="Path 4389" d="M116.3,234.367a.694.694,0,0,0-.694.694,3.253,3.253,0,1,1-3.253-3.253.694.694,0,0,0,0-1.388,4.641,4.641,0,1,0,4.641,4.641A.694.694,0,0,0,116.3,234.367Z" transform="translate(-107.71 -230.42)" fill="#463b3b"/>
      </g>
    </g>
    <g id="Group_3592" data-name="Group 3592" transform="translate(0 7.476)">
      <g id="Group_3591" data-name="Group 3591" transform="translate(0)">
        <path id="Path_4390" data-name="Path 4390" d="M19.852,151.1a.694.694,0,0,0-.8-.564l-1.453.255a.694.694,0,0,0-.55.5,6.849,6.849,0,0,1-.682,1.643.694.694,0,0,0,.033.747l.848,1.208a.423.423,0,0,1-.047.543l-.871.871a.423.423,0,0,1-.542.048l-1.208-.848a.694.694,0,0,0-.747-.033,6.842,6.842,0,0,1-1.643.682.694.694,0,0,0-.5.55l-.258,1.451a.423.423,0,0,1-.417.35H9.775a.423.423,0,0,1-.417-.35L9.1,156.7a.694.694,0,0,0-.5-.55,6.853,6.853,0,0,1-1.643-.682.694.694,0,0,0-.747.033L5,156.348a.423.423,0,0,1-.543-.047l-.871-.871a.423.423,0,0,1-.048-.542l.848-1.208a.694.694,0,0,0,.033-.747,6.834,6.834,0,0,1-.682-1.643.694.694,0,0,0-.55-.5l-1.452-.255a.423.423,0,0,1-.35-.416v-1.233a.423.423,0,0,1,.35-.417l1.452-.255a.694.694,0,0,0,.55-.5,6.834,6.834,0,0,1,.682-1.644.694.694,0,0,0-.033-.747l-.847-1.2a.423.423,0,0,1,.047-.543l.872-.872A.423.423,0,0,1,5,142.65l1.208.848a.694.694,0,0,0,.747.033,6.847,6.847,0,0,1,1.643-.682.694.694,0,0,0,.5-.55l.255-1.452a.694.694,0,1,0-1.367-.24l-.18,1.03a8.235,8.235,0,0,0-1.153.48l-.857-.6a1.808,1.808,0,0,0-2.321.2l-.874.869a1.809,1.809,0,0,0-.2,2.321l.6.857a8.225,8.225,0,0,0-.48,1.153l-1.03.18A1.809,1.809,0,0,0,0,148.882v1.233A1.809,1.809,0,0,0,1.5,151.9l1.03.181a8.219,8.219,0,0,0,.48,1.153l-.6.857a1.809,1.809,0,0,0,.2,2.321l.872.871a1.809,1.809,0,0,0,2.321.2l.854-.6a8.241,8.241,0,0,0,1.153.48l.18,1.03a1.809,1.809,0,0,0,1.787,1.5h1.233a1.809,1.809,0,0,0,1.784-1.5l.181-1.03a8.235,8.235,0,0,0,1.153-.48l.857.6a1.809,1.809,0,0,0,2.321-.2l.872-.872a1.809,1.809,0,0,0,.2-2.321l-.6-.854a8.242,8.242,0,0,0,.48-1.153l1.03-.181A.694.694,0,0,0,19.852,151.1Z" transform="translate(0 -140.033)" fill="#463b3b"/>
      </g>
    </g>
    <g id="Group_3594" data-name="Group 3594" transform="translate(10.66 0)">
      <g id="Group_3593" data-name="Group 3593">
        <path id="Path_4391" data-name="Path 4391" d="M215.06,6.3l-.726-.127a6.645,6.645,0,0,0-.32-.766l.427-.6a1.572,1.572,0,0,0-.176-2.017l-.688-.689a1.573,1.573,0,0,0-2.02-.176l-.6.423a6.626,6.626,0,0,0-.766-.32l-.125-.723A1.572,1.572,0,0,0,208.512,0h-.971a1.572,1.572,0,0,0-1.551,1.3l-.128.726a6.626,6.626,0,0,0-.766.32l-.6-.427a1.572,1.572,0,0,0-2.017.176l-.687.688a1.573,1.573,0,0,0-.176,2.02l.423.6a6.626,6.626,0,0,0-.32.766l-.723.125a1.572,1.572,0,0,0-1.3,1.551v.971a1.572,1.572,0,0,0,1.3,1.552l.725.127a6.626,6.626,0,0,0,.32.766l-.424.6a1.573,1.573,0,0,0,.175,2.017l.687.687a1.572,1.572,0,0,0,2.018.176l.605-.423a6.648,6.648,0,0,0,.766.32l.128.726a1.572,1.572,0,0,0,1.551,1.3h.971a1.572,1.572,0,0,0,1.549-1.3l.127-.725a6.626,6.626,0,0,0,.766-.32l.6.426a1.572,1.572,0,0,0,2.02-.176l.687-.687a1.573,1.573,0,0,0,.176-2.017l-.424-.606a6.649,6.649,0,0,0,.32-.766l.726-.128a1.572,1.572,0,0,0,1.3-1.549V7.851A1.572,1.572,0,0,0,215.06,6.3Zm-.085,2.524a.186.186,0,0,1-.154.184l-1.145.2a.694.694,0,0,0-.55.5,5.25,5.25,0,0,1-.523,1.259.694.694,0,0,0,.033.747l.668.952a.186.186,0,0,1-.021.239l-.687.687a.186.186,0,0,1-.238.017l-.954-.667a.694.694,0,0,0-.747-.033,5.244,5.244,0,0,1-1.259.523.694.694,0,0,0-.5.551l-.2,1.145a.186.186,0,0,1-.184.154h-.972a.186.186,0,0,1-.184-.154l-.2-1.145a.694.694,0,0,0-.5-.55,5.254,5.254,0,0,1-1.26-.523.694.694,0,0,0-.747.033l-.95.666a.186.186,0,0,1-.239-.021l-.687-.687a.186.186,0,0,1-.021-.239l.668-.952a.694.694,0,0,0,.033-.747,5.239,5.239,0,0,1-.523-1.259.694.694,0,0,0-.551-.5l-1.145-.2a.186.186,0,0,1-.154-.184V7.851a.186.186,0,0,1,.154-.184l1.144-.2a.694.694,0,0,0,.55-.5,5.245,5.245,0,0,1,.523-1.259.694.694,0,0,0-.033-.747L202.749,4a.186.186,0,0,1,.021-.239l.687-.687a.186.186,0,0,1,.239-.021l.952.668a.694.694,0,0,0,.747.033,5.244,5.244,0,0,1,1.259-.523.694.694,0,0,0,.5-.55l.2-1.145a.186.186,0,0,1,.182-.152h.971a.186.186,0,0,1,.184.154l.2,1.145a.694.694,0,0,0,.5.55,5.239,5.239,0,0,1,1.259.523.694.694,0,0,0,.747-.033l.952-.668a.186.186,0,0,1,.239.021l.687.687A.186.186,0,0,1,213.3,4l-.668.954a.694.694,0,0,0-.033.747,5.25,5.25,0,0,1,.523,1.259.694.694,0,0,0,.55.5l1.145.2a.186.186,0,0,1,.154.184Z" transform="translate(-199.69 0)" fill="#463b3b"/>
      </g>
    </g>
    <g id="Group_3596" data-name="Group 3596" transform="translate(15.681 5.021)">
      <g id="Group_3595" data-name="Group 3595">
        <path id="Path_4392" data-name="Path 4392" d="M297.046,94.05a3.316,3.316,0,1,0,3.316,3.316A3.316,3.316,0,0,0,297.046,94.05Zm0,5.243a1.929,1.929,0,0,1,0-3.858v0a1.928,1.928,0,0,1,0,3.855Z" transform="translate(-293.73 -94.05)" fill="#463b3b"/>
      </g>
    </g>
  </g>
</svg>
